<?xml version="1.0" encoding="UTF-8" standalone="no"?>
<!-- Created with Inkscape (http://www.inkscape.org/) -->

<svg
   xmlns:osb="http://www.openswatchbook.org/uri/2009/osb"
   xmlns:dc="http://purl.org/dc/elements/1.1/"
   xmlns:cc="http://creativecommons.org/ns#"
   xmlns:rdf="http://www.w3.org/1999/02/22-rdf-syntax-ns#"
   xmlns:svg="http://www.w3.org/2000/svg"
   xmlns="http://www.w3.org/2000/svg"
   xmlns:xlink="http://www.w3.org/1999/xlink"
   xmlns:sodipodi="http://sodipodi.sourceforge.net/DTD/sodipodi-0.dtd"
   xmlns:inkscape="http://www.inkscape.org/namespaces/inkscape"
   width="744.09448819"
   height="1052.3622047"
   id="svg3504"
   version="1.1"
   inkscape:version="0.48.5 r10040"
   sodipodi:docname="drawing.svg">
  <defs
     id="defs3506">
    <linearGradient
       id="linearGradient4431"
       osb:paint="solid">
      <stop
         style="stop-color:#ffffff;stop-opacity:1;"
         offset="0"
         id="stop4433" />
    </linearGradient>
    <linearGradient
       inkscape:collect="always"
       xlink:href="#linearGradient4431"
       id="linearGradient4435"
       x1="274.19775"
       y1="296.00549"
       x2="283.71686"
       y2="296.00549"
       gradientUnits="userSpaceOnUse"
       gradientTransform="matrix(0.64278761,-0.76604444,0.76604444,0.64278761,-364.71049,311.58447)" />
  </defs>
  <sodipodi:namedview
     id="base"
     pagecolor="#ffffff"
     bordercolor="#666666"
     borderopacity="1.0"
     inkscape:pageopacity="0.0"
     inkscape:pageshadow="2"
     inkscape:zoom="2.8"
     inkscape:cx="308.45361"
     inkscape:cy="692.42936"
     inkscape:document-units="px"
     inkscape:current-layer="layer1"
     showgrid="false"
     inkscape:window-width="1920"
     inkscape:window-height="1009"
     inkscape:window-x="0"
     inkscape:window-y="49"
     inkscape:window-maximized="1" />
  <metadata
     id="metadata3509">
    <rdf:RDF>
      <cc:Work
         rdf:about="">
        <dc:format>image/svg+xml</dc:format>
        <dc:type
           rdf:resource="http://purl.org/dc/dcmitype/StillImage" />
        <dc:title></dc:title>
      </cc:Work>
    </rdf:RDF>
  </metadata>
  <g
     inkscape:label="Layer 1"
     inkscape:groupmode="layer"
     id="layer1">
    <path
       inkscape:connector-curvature="0"
       id="path13"
       d="m 230.93635,293.75703 c -0.52667,0.47055 -0.92784,1.57248 -1.26673,3.37807 l -0.65777,1.40619 -1.01678,1.36731 -0.7149,3.18712 -1.75049,2.70846 c -0.3214,0.38303 -0.47855,1.03701 -0.51941,2.17628 l -0.50914,2.31806 c -0.42466,0.81724 -1.5563,1.69916 -3.82476,2.53574 l -1.3226,0.33007 c -0.55122,0.19017 -0.57722,0.68791 -0.38832,1.24065 l 2.07438,0.17414 0.55263,-0.19028 0.62782,-0.1259 0.71485,0.86092 1.29401,0.1707 c 0.42266,-0.037 0.72907,0.22014 0.84265,0.70706 l -2.07892,1.38856 -2.21856,0.61998 -1.77315,1.64645 c -0.56682,0.83108 -0.57011,1.61287 -0.23828,2.15239 l 2.48801,-0.78551 c 1.02644,-0.44543 1.67967,-0.28892 2.30407,0.36555 0.83627,-0.99662 1.41289,-0.9044 1.57449,0.14759 l -1.18497,1.8789 c -0.3727,0.59974 -1.38746,1.18681 -2.96589,1.82177 -1.98811,0.81206 -2.55353,1.64302 -1.69984,2.49251 l 1.65162,0.20969 1.88155,0.40394 c 2.21274,0.94423 2.71075,1.75243 1.57963,2.63219 l -1.65427,0.57132 -1.38747,1.1868 c -0.32469,1.16481 0.36552,1.74396 1.99248,1.6719 2.11466,-0.18501 3.34503,0.0615 3.66249,0.46107 l -1.61728,0.99397 c -0.61548,0.26681 -0.73237,0.56165 -0.33702,1.02393 l 1.74067,0.41627 c 0.84658,-0.0755 1.42115,0.0176 1.81791,0.47978 l -2.04056,1.03174 c -0.9876,0.0864 -1.58999,0.49472 -1.82322,1.08226 l 4.01821,1.28171 c 0.99662,0.83628 1.03359,1.25893 0.25182,1.25564 l -2.33216,0.13305 c -0.79599,0.63749 -0.74733,1.20179 0.14804,1.69201 l 2.12369,0.73766 c 0.81864,0.42453 1.48166,1.50435 1.77046,3.18262 l -1.33223,0.18753 c -0.57586,-0.0916 -0.92255,0.0104 -1.10382,0.3805 -0.2448,0.4473 -0.22078,0.72983 0.2922,0.89789 l 1.29337,0.17149 c 1.88091,0.4047 2.20093,0.80117 0.98165,1.47639 l -2.45818,-0.49615 c -0.52719,0.47271 -0.20845,0.87071 0.89207,1.272 1.10041,0.39988 1.58546,1.06796 1.14719,1.74585 -0.43763,0.67711 -1.87175,0.51936 -4.39155,-0.68122 -0.15651,0.65324 0.26426,1.39792 1.10767,2.10563 0.93223,0.91146 1.4043,1.43942 1.44128,1.86207 0.30376,1.03814 0.059,1.48544 -0.65776,1.40618 l -2.35616,-0.14947 -0.8726,0.5732 -1.07716,-0.11798 c -0.53889,0.33106 -0.77135,0.91925 -0.58181,1.47122 l 1.61023,1.35114 1.95691,1.24912 -0.7974,0.63761 -3.94815,1.12549 c -1.58998,0.49472 -1.59263,1.27575 -0.0852,2.27956 l 0.88305,0.34934 0.42,0.74404 c -0.0553,0.99927 -0.5052,1.5355 -1.28622,1.53285 l -2.0114,-0.2492 -1.23426,1.31537 c -0.0799,0.7175 0.12402,1.40947 0.86479,1.77125 0.83109,0.56683 1.30304,1.09338 1.27574,1.59263 l -0.78696,1.56016 -0.67776,-0.43685 -0.56165,-0.73237 -2.45621,2.77162 c -0.41879,2.5231 0.0901,3.4723 1.45108,2.78539 l 1.22644,1.0291 c -0.30908,0.52391 -0.49211,1.67704 -0.75517,3.54627 -1.75034,-1.33818 -2.92671,-1.80311 -3.62021,-1.60047 -1.53803,0.27723 -2.24511,1.11985 -1.84136,2.50559 l 0.47778,-1.03766 -0.32658,1.94647 -0.15056,-0.90958 c -0.59284,1.32882 -0.77664,2.4813 -0.40783,3.44347 l 3.13714,4.20017 2.23726,1.22458 5.29657,6.14138 c 1.14983,0.96482 2.06985,1.73681 2.99099,1.72649 1.00056,0.0537 1.60119,0.42847 1.95703,1.25053 1.08278,1.82104 2.07941,2.65731 2.78536,2.59696 l 1.37239,-0.54805 1.45124,-1.26123 c 0.5414,-1.1135 0.99135,-1.64974 1.48033,-1.7642 2.37036,-0.4913 6.01526,-2.65711 10.66896,-6.33008 l 5.45506,-7.43763 4.65453,-5.23746 1.94792,-3.72159 1.86408,-2.22154 1.92237,-4.0054 5.3814,-7.50075 1.14722,-2.30219 -0.21043,-2.39707 c -0.34062,-1.45937 -0.23265,-2.67549 0.24448,-3.71239 l 1.83293,-4.2084 -1.12471,-1.46458 1.60449,-0.35332 1.10635,-1.16294 0.004,-0.78255 -0.21471,-0.83156 0.86216,-1.49575 2.55593,-2.42686 3.8923,0.65391 -1.04516,-1.39916 -1.58417,-1.0695 -1.39714,0.26491 -1.52306,-0.3629 c -1.06279,0.022 -1.84709,0.80117 -2.23607,2.04255 -0.43951,1.45877 -0.85389,2.41778 -1.40433,2.6086 -1.0069,-0.97803 -0.91408,-2.33478 0.4377,-3.94578 0.44931,-0.53547 1.25904,-1.03219 2.07828,-1.38779 l 1.82386,-1.08303 c -1.63753,-0.85188 -3.71508,-0.24282 -6.45053,1.77102 -3.12035,2.47411 -3.67955,4.228 -1.46411,5.17058 l -0.51753,1.39462 c 0.54856,0.59083 0.73874,1.14204 0.37849,1.88408 l -1.12132,1.80306 c 0.24074,0.33384 0.33244,0.53877 0.2156,0.83362 l -0.41439,0.95899 0.86479,1.77126 -0.93876,1.43147 c -0.59365,0.54881 -0.68523,1.12467 -0.41768,1.74079 l -1.84632,0.80181 0.0864,0.9876 c -0.59224,0.54868 -1.2578,0.25129 -2.13742,-0.87843 -0.89272,-1.27124 -0.6713,-2.00183 0.5194,-2.17628 -0.4069,-0.60252 -0.17392,-1.19288 0.49428,-1.67651 l 1.59187,-1.27639 c -0.10049,-0.3454 0.11812,-1.07575 0.68506,-1.90543 l 0.73754,-2.1251 c 0.0423,-1.1394 -0.33757,-2.24398 -1.02512,-3.60415 -0.74405,0.42 -1.24395,0.39346 -1.43349,-0.15851 -0.25451,-0.47459 -0.22665,-0.97604 0.37587,-1.38294 l -1.29212,-0.95238 c 0.55263,-0.19028 0.86168,-0.71421 0.86433,-1.49524 l 0.0324,-2.0641 1.42915,-1.54608 1.52706,-1.1976 c -0.98164,-1.4764 -2.50811,-1.05893 -4.28456,1.36929 l -1.55754,2.48006 0.23937,1.11333 -0.10579,1.21663 -2.31529,-1.28874 c 0.62846,-0.12667 0.94986,-0.50968 1.0291,-1.22643 l 0.13374,-1.71666 1.71991,-1.42742 0.86421,-1.49665 c -2.90676,-0.73942 -4.73058,1.12297 -5.52854,5.8108 -0.36697,2.3042 -0.0501,3.48385 0.90878,3.89684 l 1.0511,-0.16366 c 0.6169,-0.26692 0.89931,-0.29233 1.12912,-0.0995 l 0.72389,1.78358 1.42258,0.0175 -0.36685,2.30562 -1.36752,2.25048 0.51949,1.87316 -0.49035,0.89396 c -0.27007,0.16632 -0.30893,0.52531 -0.14417,0.79411 l -1.76006,1.78796 -1.13938,-0.0423 -1.25716,0.25053 c -0.67978,0.34335 -0.61737,1.04845 -0.24996,2.01075 l 0.89085,2.05288 c -2.2944,0.55636 -4.71423,-0.29665 -7.19252,-2.63727 l 1.88813,-1.15962 -1.95815,-0.46822 -2.00822,-1.03241 c -1.27498,-1.59198 -1.32166,-2.93652 -0.42109,-4.00976 l -3.21968,-2.70164 c -0.4298,-1.66736 0.36431,-1.52318 2.28095,0.0851 1.36657,1.01614 3.30645,2.90628 5.83404,5.81043 l -2.48917,-6.52966 -2.41325,-2.41658 c -1.16292,-1.10634 -1.29975,-1.87516 -0.24992,-2.03729 0.83232,-0.21407 1.88155,0.40394 3.1456,1.85494 l 4.41802,8.27738 c 0.398,-0.31874 0.23499,-1.37061 -0.56538,-3.21707 l -1.6024,-3.69561 -0.30125,-1.82056 -1.25173,-1.31011 -1.64138,-3.338 c 0.39876,-0.3181 1.06291,-0.0206 1.7784,0.83956 l 2.34962,2.49242 -4.80434,-7.817 0.4506,-0.53699 4.40838,3.30744 c -0.25182,-1.25562 -0.93937,-2.6158 -2.02493,-3.65722 l -2.05676,-1.59529 -1.63551,-1.63214 c 0.59489,-1.3297 1.74725,-1.1473 3.45797,0.54924 1.71147,1.69718 2.68268,2.25105 2.92748,1.80374 -2.14647,-1.80109 -3.26964,-3.2644 -3.30268,-4.46961 0.42329,-0.0377 1.66471,0.35123 3.72412,1.16549 l 3.81569,0.58964 11.5673,-3.3558 4.00403,-2.12554 c 1.0389,-0.30312 2.57758,-0.58112 4.42203,-0.60123 l 4.45912,-0.17719 c 3.29381,-0.49969 6.00323,-2.01581 8.22633,-4.19847 l 1.24988,-1.95627 0.54078,-1.11274 c 0.0649,-0.0774 0.20674,-0.0887 0.3467,-0.10198 l 0.41031,-0.17787 c 1.19794,-1.73878 1.36878,-3.03138 0.43578,-3.94348 l -1.55249,0.91519 -1.70485,0.009 -3.64566,2.16517 -4.00203,1.34528 -4.16374,0.29188 -3.96177,0.98615 -0.25578,-0.47305 -6.50621,-0.49621 c -3.64751,-1.10121 -5.02716,-2.25887 -4.30319,-3.74396 l 1.29509,-0.61053 0.95314,-1.29147 -5.1097,-0.76034 -2.56333,0.7197 c -1.37376,0.54825 -2.11922,0.96835 -2.08021,1.39009 l -0.95952,-0.41221 1.68815,-2.63414 -0.0351,-1.20432 0.47854,-1.03702 c 0.23299,-0.59035 0.77135,-0.91925 1.54069,-1.05825 l 1.50041,-0.69911 1.07202,-2.3666 c 0.48958,-0.8946 1.31216,-1.25262 2.46336,-1.06726 1.07576,0.11812 1.99843,0.10908 2.52499,-0.36287 l 2.0549,-1.67109 2.37178,-0.49142 c 0.88887,-1.21488 1.76223,-1.78745 2.4913,-1.56731 l 1.96663,-1.87701 2.69581,-1.65547 2.07041,-2.3134 c 1.04155,-1.08414 1.84987,-1.58075 2.49142,-1.5659 l 0.69461,-0.98494 1.09137,-0.52281 1.13365,-1.66218 c 1.24531,-1.17295 2.52698,-1.14315 3.90587,0.0139 1.21928,-0.67525 1.70951,-1.57059 1.58689,-2.98019 l -0.76151,-2.20548 -1.01798,-1.89982 c -0.67461,-1.22003 -1.66017,-1.9139 -2.93981,-1.94462 l -4.2391,-0.55329 c -1.94648,-0.32658 -3.30477,-0.42068 -4.41938,-0.17979 l -4.35988,1.30348 -3.56906,2.22945 -6.16534,0.96599 -0.93689,0.64981 -1.11602,0.24103 -8.05283,2.12485 c -3.38526,1.07696 -5.97529,1.5158 -7.58791,0.94849 l -1.77126,0.86479 -0.57786,0.68868 -0.80897,0.49736 -1.21411,-0.88821 c -0.54856,-0.59084 -1.27904,-0.81086 -1.90685,-0.68495 l -3.33848,2.42292 -3.03503,0.19597 -0.004,0.005 z" />
    <path
       inkscape:connector-curvature="0"
       id="path15"
       d="m 265.79249,306.52261 c -0.61547,0.26681 -0.40129,1.10054 0.55635,2.29441 l 0.0947,-1.35906 c -0.13811,-0.76728 -0.38165,-1.10088 -0.6511,-0.93535 l 0,0 z" />
    <polygon
       transform="matrix(0.64278761,-0.76604444,0.76604444,0.64278761,140.57213,379.4804)"
       id="polygon17"
       points="138.178,50.329 137.779,49.729 136.678,50.629 135.678,52.43 136.978,51.629 " />
    <path
       inkscape:connector-curvature="0"
       id="path19"
       d="m 270.15875,306.92283 c -0.18766,-1.33364 -0.59533,-1.93681 -1.23611,-1.95101 -0.28175,0.0247 -0.44995,0.53623 -0.38896,1.24141 l 1.51257,3.48839 0.1125,-2.77879 0,0 z" />
    <path
       inkscape:connector-curvature="0"
       id="path21"
       d="m 270.74445,303.88968 c -0.50114,0.75436 -0.59272,1.33022 -0.33954,1.80636 l 0.68617,1.36028 1.02907,2.8216 -0.002,-3.26561 -0.46754,-2.09065 -0.90565,-0.63199 0,0 z" />
    <path
       inkscape:connector-curvature="0"
       id="path23"
       d="m 272.32223,303.25548 1.41582,5.62771 c 0.64874,-2.32885 0.70586,-4.10979 0.007,-5.6102 l -0.25526,-0.47523 -0.43574,-0.10455 -0.56213,0.0492 -0.16947,0.51311 0,0 z" />
    <path
       inkscape:connector-curvature="0"
       id="path25"
       d="m 274.83878,301.18981 c -0.47588,0.25601 -0.56747,0.83186 -0.34159,1.80725 l 1.11205,4.58957 c 1.0071,-2.28922 0.97466,-4.27456 0.10989,-6.04582 -0.31875,-0.398 -0.61284,-0.51423 -0.88228,-0.34869 l 0.002,-0.002 z" />
    <path
       inkscape:connector-curvature="0"
       id="path27"
       d="m 276.70098,299.74995 -0.45059,0.53699 -0.0157,0.6395 c 0.86479,1.77126 1.20692,3.23193 1.2284,4.29689 l 0.2578,-4.35522 -0.50894,-0.94921 -0.51093,-0.16895 0,0 z" />
    <path
       inkscape:connector-curvature="0"
       id="path29"
       d="m 278.06942,299.98442 -0.11687,0.29486 0.11498,0.4868 0.59735,1.15655 0.54338,2.15428 0.18821,-2.71657 c -0.48099,-1.44923 -0.94134,-1.83556 -1.32705,-1.37592 z" />
    <path
       inkscape:connector-curvature="0"
       id="path31"
       d="m 279.51741,297.79362 c -0.44808,-0.24544 -0.70519,0.061 -0.87338,0.57256 -0.11687,0.29486 0.13824,0.7687 0.52207,1.09072 l 1.09459,1.9641 c 0.32139,-0.38303 0.33637,-1.02317 0.0325,-2.06271 l -0.77575,-1.56468 z" />
    <path
       inkscape:connector-curvature="0"
       id="path33"
       d="m 280.35303,296.79776 c -0.34682,0.1006 -0.51488,0.61361 -0.17084,1.2926 0.69883,1.50101 1.13045,3.16906 0.91793,4.82092 0.57787,-0.68867 0.89087,-1.99514 0.81945,-3.62286 -0.78786,-1.70614 -1.22054,-2.5919 -1.56654,-2.49066 l 0,0 z" />
    <path
       inkscape:connector-curvature="0"
       id="path35"
       d="m 281.98529,295.16366 c -0.54019,0.33255 -0.796,0.63748 -0.53049,1.2545 l 0.76355,1.4252 c 0.66291,1.0784 0.99069,2.39907 1.12703,3.94942 l 0.19223,-4.27707 c -0.0734,-0.84748 -0.2649,-1.39715 -0.58365,-1.79516 -0.33106,-0.53888 -0.70189,-0.7208 -0.9712,-0.55385 l 0.003,-0.003 z" />
    <path
       inkscape:connector-curvature="0"
       id="path37"
       d="m 283.7818,293.80051 c -0.61613,0.26756 -0.60709,1.19022 0.0681,2.40952 l 1.01725,2.67853 0.21565,-3.21442 c -0.41799,-1.52429 -0.82644,-2.1281 -1.30104,-1.87363 z" />
    <path
       inkscape:connector-curvature="0"
       id="path39"
       d="m 285.50561,295.63858 c 0.46745,-1.9588 0.3935,-2.8041 -0.31092,-2.74247 -0.42393,0.0385 -0.6038,0.40844 -0.38961,1.24218 l 0.70053,1.50029 0,0 z" />
    <path
       inkscape:connector-curvature="0"
       id="path41"
       d="m 287.12679,293.08268 c -0.5765,-0.0908 -0.58245,1.472 -0.36235,4.79097 0.57916,-0.69021 0.92914,-1.57401 1.02132,-2.93 0.10655,-1.216 -0.096,-1.90809 -0.66026,-1.85943 l 0.001,-0.002 z" />
    <path
       inkscape:connector-curvature="0"
       id="path43"
       d="m 288.0595,312.67624 c 0.28362,3.24173 0.84121,4.75524 1.89308,4.59223 1.46066,-0.34216 0.76155,-1.84257 -1.89308,-4.59223 l 0,0 z" />
    <path
       inkscape:connector-curvature="0"
       id="path45"
       d="m 285.94801,312.07806 c 0.75634,3.76892 1.49191,5.69417 2.19762,5.631 1.03813,-0.30377 0.31296,-2.08583 -2.19762,-5.631 l 0,0 z" />
    <path
       inkscape:connector-curvature="0"
       id="path47"
       d="m 285.74783,318.69821 c 0.76934,-0.139 0.65842,-1.40695 -0.0909,-3.47294 -0.80118,-1.84709 -1.41146,-3.14376 -1.85939,-3.38779 l 0.38563,3.58841 c 0.41547,2.30673 0.86088,3.33318 1.56464,3.27233 l 0,0 z" />
    <path
       inkscape:connector-curvature="0"
       id="path49"
       d="m 283.71946,319.8694 c 0.44995,-0.53623 0.56935,-1.61352 0.16433,-2.9977 l -0.99133,-2.39831 -0.53129,5.3019 c -0.10326,0.43421 -0.015,0.64014 0.40832,0.6024 l 0.94996,-0.5083 0,0 z" />
    <path
       inkscape:connector-curvature="0"
       id="path51"
       d="m 282.25418,317.72479 -1.33482,-3.0795 -1.87372,-2.7484 1.51908,5.19349 0.62267,1.43753 c 0.3181,0.39876 0.53624,0.44994 0.80568,0.28442 l 0.26117,-1.08757 0,0 z" />
    <path
       inkscape:connector-curvature="0"
       id="path53"
       d="m 280.54142,320.85653 c 0.89801,-0.29079 0.75966,-1.06089 0.0844,-2.28018 l -1.8243,-2.18348 c 0.70627,3.20475 1.1893,4.65309 1.73987,4.46366 l 0,0 z" />
    <path
       inkscape:connector-curvature="0"
       id="path55"
       d="m 279.01683,320.49235 c -0.21091,-1.61553 -0.8991,-2.97493 -2.23848,-4.49173 l 0.72698,4.26907 0.78054,0.78419 c 0.37058,0.1791 0.70506,-0.0624 0.73096,-0.56153 l 0,0 z" />
    <polygon
       transform="matrix(0.64278761,-0.76604444,0.76604444,0.64278761,140.57213,379.4804)"
       id="polygon57"
       points="132.069,66.438 133.279,64.636 134.079,62.436 131.569,64.837 131.268,65.837 " />
    <path
       inkscape:connector-curvature="0"
       id="path59"
       d="m 272.43156,317.44562 0.31028,2.74324 c -0.0402,1.1385 0.13634,1.55036 0.8174,1.20543 0.40905,-0.17629 0.48816,-0.89448 0.10908,-1.99842 -0.29852,-0.88883 -0.70053,-1.50029 -1.23676,-1.95025 z" />
    <path
       inkscape:connector-curvature="0"
       id="path61"
       d="m 270.32545,316.99816 -0.039,4.40564 0.97057,0.55462 c 0.42329,-0.0377 0.69273,-0.20328 0.66885,-0.48439 l -0.39018,-2.02573 -1.21025,-2.45012 z" />
    <path
       inkscape:connector-curvature="0"
       id="path63"
       d="m 268.95408,321.58993 c 0.66873,-0.48582 0.42847,-1.60119 -0.78299,-3.27044 l -0.23764,2.15164 0.11106,1.26936 0.90957,-0.15056 z" />
    <path
       inkscape:connector-curvature="0"
       id="path65"
       d="m 266.59544,318.17485 -0.46822,1.95815 c -0.0546,0.99851 0.26555,1.39638 0.97061,1.33399 0.49938,0.0287 0.40001,-1.099 -0.50239,-3.29214 z" />
    <path
       inkscape:connector-curvature="0"
       id="path67"
       d="m 265.1267,320.85865 c 0.62781,-0.12591 0.55591,-0.9721 -0.2869,-2.45994 l -0.14683,1.57514 c -0.015,0.64013 0.0235,1.06407 0.43377,0.88479 l 0,0 z" />
    <path
       inkscape:connector-curvature="0"
       id="path69"
       d="m 263.65736,319.49519 -0.44468,-1.0258 -0.50379,1.53538 0.53623,0.44995 c 0.49925,0.0273 0.60316,-0.40767 0.41221,-0.95952 z" />
    <path
       style="fill:#ffffff;fill-opacity:1"
       inkscape:connector-curvature="0"
       id="path71"
       d="m 240.31136,306.49641 -0.0501,-0.56418 c 0.31955,0.39859 0.98356,0.69476 1.90685,0.68495 1.12783,-0.098 1.66596,-0.42961 1.97641,-0.95371 l -0.0441,-2.12698 c -0.29225,-0.89789 -0.2006,-1.47376 0.39162,-2.02244 0.71943,-0.70175 1.85944,-0.66027 3.72866,-0.39722 1.23051,0.24793 1.93757,-0.59464 1.99393,-2.37626 0.0571,-1.78095 -0.83747,-2.27051 -2.7223,-1.89266 l -4.18267,1.71456 c -1.00182,0.72718 -1.88922,1.94197 -2.59961,3.56635 l -1.11617,4.2877 0.38303,0.32138 0.33459,-0.2414 0,0 z" />
    <path
       style="fill:url(#linearGradient4435);fill-opacity:1"
       inkscape:connector-curvature="0"
       id="path73"
       d="m 34.128104,286.56005 -0.0247,-0.28175 -0.27273,0.94732 1.95615,1.24848 2.12432,0.73689 c 1.11351,0.54141 1.64974,0.99136 1.82837,1.40233 l -0.13121,0.93423 -0.41298,0.95888 c 0.1006,0.34682 1.18946,0.60645 3.39099,0.62749 l 4.01184,-0.42197 c 0.7448,-0.41935 0.90255,-1.85347 0.76949,-4.18563 -0.0838,-1.76861 -0.87445,-2.69316 -2.38594,-2.91582 l -8.10918,-0.14161 c -1.8809,-0.4047 -2.71592,-0.18897 -2.76912,0.80941 0.11623,-0.29409 0.38632,-0.46039 0.94986,-0.50968 l -0.57851,0.68944 -0.3467,0.10198 0,0 z" />
    <path
       style="fill:#ffffff;fill-opacity:1"
       inkscape:connector-curvature="0"
       id="path75"
       d="m 266.19723,295.76627 0.50519,-1.53551 c -1.0291,1.22644 -1.58219,2.19828 -1.39264,2.75027 0.27723,1.53802 0.87772,1.91138 1.80293,1.11991 l 1.32585,-1.89122 2.01794,-2.09375 c -1.34078,-1.51667 -2.71264,-0.97076 -4.25798,1.64876 l -0.001,0.002 z" />
    <path
       style="fill:#ffffff;fill-opacity:1"
       inkscape:connector-curvature="0"
       id="path77"
       d="m 239.61891,362.9318 -1.13939,-0.0423 c -0.45059,0.537 0.0864,0.98759 1.81462,1.26156 l 1.48685,-0.0591 c 0.62781,-0.1259 1.06419,-0.0221 1.30568,0.31237 l -2.1939,0.90175 1.60042,0.42783 1.6653,-0.42891 c 2.43341,0.21299 3.3444,0.0623 3.08929,-0.41152 l -1.85501,-0.90385 -0.66214,-1.07776 c -0.24213,-0.33372 -0.53624,-0.44995 -0.80644,-0.28506 l 0.26692,0.61689 0.0624,0.70506 -0.46039,-0.38632 -0.47272,-0.52719 -3.50787,-0.33264 -0.1936,0.22916 0,0 z" />
    <path
       style="fill:#ffffff;fill-opacity:1"
       inkscape:connector-curvature="0"
       id="path79"
       d="m 245.00111,370.06012 c -0.60115,-0.37258 -0.95888,-0.41297 -1.07575,-0.11811 l 0.11294,0.48769 -0.16896,0.51094 0.58759,1.01259 0.68066,-0.34134 0.4342,0.10327 c 1.55177,-0.13648 1.949,-0.45587 1.27124,-0.89273 l -0.51234,-0.16882 -0.64014,-0.015 -0.68944,-0.57851 z" />
    <path
       style="fill:#ffffff;fill-opacity:1"
       inkscape:connector-curvature="0"
       id="path81"
       d="m 249.11544,369.2033 c -1.33035,-0.59412 -1.74068,-0.41627 -1.46143,0.34151 l 0.15319,0.12857 2.62105,1.54662 0.98619,-0.0863 0.49849,0.0267 0.52797,-0.47208 1.28026,0.0299 c 0.42342,-0.0363 0.39941,-0.31886 -0.0734,-0.84748 -1.49169,-1.6433 -2.99087,-1.72508 -4.53231,-0.66747 z" />
    <path
       style="fill:#ffffff;fill-opacity:1"
       inkscape:connector-curvature="0"
       id="path83"
       d="m 254.23373,367.61982 -0.14231,0.0124 c -0.82053,0.35713 -0.50114,0.75436 0.76355,1.4252 l 0.54933,0.59147 0.42074,0.7447 c 0.59975,0.37271 0.85687,0.0663 0.77135,-0.91925 l -0.6487,-1.71918 -1.71396,-0.13539 z" />
    <path
       style="fill:#ffffff;fill-opacity:1"
       inkscape:connector-curvature="0"
       id="path93"
       d="m 240.3151,357.90011 -0.60116,-0.37258 -0.56353,0.0493 c -0.76933,0.13899 -0.89725,0.29144 -0.57851,0.68943 l 0.31875,0.398 0.58959,0.23234 c 0.21685,0.0527 0.51094,0.16895 0.52326,0.30984 l 0.10124,0.34605 0.76604,0.64278 0.41032,-0.17787 0.25711,-0.30642 -0.0115,-0.14025 -0.16484,-0.27022 -0.1532,-0.12857 -0.44794,-0.24402 -0.11358,-0.48693 -0.33191,-0.54096 z" />
    <polygon
       style="fill:#ffffff;fill-opacity:1"
       transform="matrix(0.64278761,-0.76604444,0.76604444,0.64278761,140.57213,379.4804)"
       id="polygon95"
       points="78.344,62.736 78.243,62.436 78.344,62.235 78.243,61.935 77.743,61.835 77.344,62.235 77.443,63.136 77.743,63.536 77.844,63.736 78.243,63.636 78.344,63.336 " />
    <path
       sodipodi:type="arc"
       style="fill:#ffffff;fill-opacity:1"
       id="path4456"
       sodipodi:cx="287.64093"
       sodipodi:cy="264.19064"
       sodipodi:rx="2.0203052"
       sodipodi:ry="4.2931485"
       d="m 289.66124,264.19064 a 2.0203052,4.2931485 0 0 1 -0.27894,2.17672 l -1.74137,-2.17672 z"
       sodipodi:start="0"
       sodipodi:end="0.53172406"
       transform="matrix(0.64278761,-0.76604444,0.76604444,0.64278761,-148.99622,320.51306)" />
    <path
       sodipodi:type="arc"
       style="fill:#ffffff;fill-opacity:1"
       id="path4476"
       sodipodi:cx="321.22852"
       sodipodi:cy="373.66595"
       sodipodi:rx="3.0304577"
       sodipodi:ry="3.661803"
       d="m 324.25897,373.66595 a 3.0304577,3.661803 0 0 1 -0.4184,1.85661 l -2.61205,-1.85661 z"
       sodipodi:start="0"
       sodipodi:end="0.53172406"
       transform="matrix(0.64278761,-0.76604444,0.76604444,0.64278761,-160.28193,358.01306)" />
    <g
       id="Layer 1"
       transform="matrix(0.01182052,0.75245657,-0.21637072,0.00339904,325.48127,289.34675)">
      <path
         id="path4481"
         d="m 48.5,12.5 70,0"
         inkscape:connector-curvature="0"
         style="fill-opacity:0;stroke:#000000;stroke-width:8;stroke-linecap:square" />
      <path
         id="path4483"
         d="m 48.5,12.5 0,48"
         inkscape:connector-curvature="0"
         style="fill-opacity:0;stroke:#000000;stroke-width:8;stroke-linecap:square" />
      <path
         id="path4485"
         d="m 48.5,60.5 36,0"
         inkscape:connector-curvature="0"
         style="fill-opacity:0;stroke:#000000;stroke-width:8;stroke-linecap:square" />
      <path
         id="path4487"
         d="m 48.5,36.5 -24,0"
         inkscape:connector-curvature="0"
         style="fill-opacity:0;stroke:#000000;stroke-width:8;stroke-linecap:square" />
      <path
         id="path4489"
         d="m 84.5,108.5 34,0"
         inkscape:connector-curvature="0"
         style="fill-opacity:0;stroke:#000000;stroke-width:8;stroke-linecap:square" />
      <path
         id="path4491"
         d="m 132.5,156.5 -48,0"
         inkscape:connector-curvature="0"
         style="fill-opacity:0;stroke:#000000;stroke-width:8;stroke-linecap:square" />
      <path
         id="path4493"
         d="m 84.5,156.5 0,-48"
         inkscape:connector-curvature="0"
         style="fill-opacity:0;stroke:#000000;stroke-width:8;stroke-linecap:square" />
      <path
         id="path4495"
         d="m 84.5,132.5 -60,0"
         inkscape:connector-curvature="0"
         style="fill-opacity:0;stroke:#000000;stroke-width:8;stroke-linecap:square" />
      <path
         id="path4497"
         d="m 24.5,36.5 0,96"
         inkscape:connector-curvature="0"
         style="fill-opacity:0;stroke:#000000;stroke-width:8;stroke-linecap:square" />
      <path
         id="path4483-9"
         d="m 80.165207,-43.703848 0,47.9999999"
         inkscape:connector-curvature="0"
         style="fill-opacity:0;stroke:#000000;stroke-width:8;stroke-linecap:square" />
      <path
         id="path4487-2"
         d="m 21.94639,83.041026 -24,0"
         inkscape:connector-curvature="0"
         style="fill-opacity:0;stroke:#000000;stroke-width:8;stroke-linecap:square" />
    </g>
    <path
       sodipodi:type="arc"
       style="fill:#ffffff;fill-opacity:1"
       id="path4515"
       sodipodi:cx="236.3757"
       sodipodi:cy="245.37657"
       sodipodi:rx="4.2931485"
       sodipodi:ry="7.7024131"
       d="m 240.66885,245.37657 a 4.2931485,7.7024131 0 0 1 -3.34962,7.51409 l -0.94353,-7.51409 z"
       sodipodi:start="0"
       sodipodi:end="1.3492114"
       transform="matrix(0.64278761,-0.76604444,0.76604444,0.64278761,-148.99622,320.51306)" />
    <rect
       style="fill:#ffffff;fill-opacity:1"
       id="rect4517"
       width="7.9549513"
       height="11.869292"
       x="-94.696686"
       y="341.04874"
       transform="matrix(0.64278761,-0.76604444,0.76604444,0.64278761,0,0)" />
    <rect
       style="fill:#ffffff;fill-opacity:1"
       id="rect4519"
       width="5.5558391"
       height="1.0101526"
       x="-87.373077"
       y="352.03415"
       transform="matrix(0.64278761,-0.76604444,0.76604444,0.64278761,0,0)" />
    <path
       id="path4495-2"
       d="m 338.00633,394.61832 -0.70925,-45.1474"
       inkscape:connector-curvature="0"
       style="fill-opacity:0;stroke:#000000;stroke-width:3.22837162;stroke-linecap:square" />
    <rect
       style="fill:#ffffff;fill-opacity:1"
       id="rect4539"
       width="1.25"
       height="0.17857143"
       x="-65.138306"
       y="499.34833"
       transform="matrix(0.64278761,-0.76604444,0.76604444,0.64278761,0,0)" />
    <path
       style="fill:#ffffff;fill-opacity:1"
       inkscape:connector-curvature="0"
       id="path75-9"
       d="m 129.65991,321.3953 1.53549,0.50523 c -1.22644,-1.0291 -2.19827,-1.58219 -2.75027,-1.39264 -1.53802,0.27723 -1.91138,0.87772 -1.1199,1.80293 l 1.89123,1.32585 2.09375,2.01794 c 1.51666,-1.34078 0.97076,-2.71263 -1.64876,-4.25798 l -0.001,0.002 z" />
  </g>
</svg>
